<?xml version="1.0" encoding="utf-8"?>
<!-- Generator: Adobe Illustrator 25.3.1, SVG Export Plug-In . SVG Version: 6.00 Build 0)  -->
<svg version="1.1" id="Layer_1" xmlns="http://www.w3.org/2000/svg" xmlns:xlink="http://www.w3.org/1999/xlink" x="0px" y="0px"
	 viewBox="0 0 150.1 48" style="enable-background:new 0 0 150.1 48;" xml:space="preserve">
<style type="text/css">
	.st0{fill:#FFFFFF;}
	.st1{fill:#002752;}
	.st2{fill:#89C7E8;}
	.st3{fill:#0BADDC;}
	.st4{fill:#307FC2;}
</style>
<polygon id="path-1" class="st0" points="11.3,17.8 11.3,30.2 14,30.2 14,17.8 "/>
<rect class="st1" width="150.1" height="48"/>
<g id="_1-Overview-alt">
	<g id="header">
		<g id="logo-midtrans-color-copy-2">
			<path id="Fill-1" class="st2" d="M13.7,30.2c-0.8,0-1.4-0.6-1.4-1.3v-9.8c0-0.7,0.6-1.3,1.4-1.3s1.4,0.6,1.4,1.3v9.8
				C15.1,29.6,14.5,30.2,13.7,30.2"/>
			<path id="Fill-4" class="st3" d="M30.1,30.2c-0.8,0-1.4-0.6-1.4-1.3v-9.8c0-0.7,0.6-1.3,1.4-1.3s1.4,0.6,1.4,1.3v9.8
				C31.5,29.6,30.9,30.2,30.1,30.2"/>
			<path id="Fill-6" class="st4" d="M21.9,34.2c-0.8,0-1.4-0.6-1.4-1.3V15.2c0-0.7,0.6-1.3,1.4-1.3s1.4,0.6,1.4,1.3v17.6
				C23.3,33.6,22.7,34.2,21.9,34.2"/>
			<path id="Fill-12" class="st0" d="M128.8,28.7c-0.2-0.1-0.3-0.3-0.3-0.6c0-0.4,0.4-0.8,0.8-0.8c0.2,0,0.3,0,0.4,0.1
				c1.2,0.8,2.5,1.3,3.9,1.3c1.5,0,2.5-0.7,2.5-1.9v0c0-1.2-1.4-1.7-3-2.1c-1.9-0.5-4-1.2-4-3.4v0c0-2.1,1.7-3.4,4.1-3.4
				c1.3,0,2.7,0.4,3.9,1c0.2,0.1,0.4,0.4,0.4,0.7c0,0.4-0.4,0.8-0.8,0.8c-0.2,0-0.3,0-0.4-0.1c-1-0.6-2.1-0.9-3.2-0.9
				c-1.4,0-2.4,0.7-2.4,1.7v0c0,1.1,1.5,1.6,3.1,2.1c1.9,0.6,3.9,1.3,3.9,3.4v0c0,2.3-1.9,3.6-4.3,3.6
				C131.9,30.2,130.1,29.6,128.8,28.7"/>
			<path id="Fill-14" class="st0" d="M125.8,22.8c0-2.7-2.4-5-5.3-5s-5.3,2.3-5.3,5.2v6.2c0,0.5,0.4,0.9,1,0.9s0.9-0.4,0.9-0.9v-2.8
				v-3.6c0-1.8,1.5-3.3,3.4-3.3c1.9,0,3.4,1.5,3.4,3.3v6.3c0,0.5,0.4,0.9,0.9,0.9c0.5,0,1-0.4,1-0.9
				C125.8,29.1,125.9,23.4,125.8,22.8"/>
			<path id="Fill-16" class="st0" d="M106.1,28.6c-1.6,0-2.9-0.7-2.9-2.2v0c0-1.5,1.3-2.5,3.5-2.5c1.5,0,3.6,0.5,3.6,0.5v0
				C110.3,26.6,108.2,28.6,106.1,28.6L106.1,28.6L106.1,28.6z M112,22.7L112,22.7c-0.2-2.6-2.5-4.7-5.3-4.7h-0.8
				c-0.5,0-0.9,0.4-0.9,0.8c0,0.5,0.4,0.8,0.9,0.8h0.8c1.9,0,3.5,1.5,3.5,3.3v0.2c-1.1-0.3-2.2-0.5-3.7-0.5c-3.1,0-5.2,1.3-5.2,3.9
				v0c0,2.5,2.2,3.7,4.5,3.7c2,0,3.7-1,4.5-2.4v1.4c0,0.5,0.4,0.8,0.9,0.8c0.5,0,0.9-0.4,0.9-0.8L112,22.7L112,22.7z"/>
			<path id="Fill-18" class="st0" d="M101,18.8c0-0.5-0.4-0.8-0.9-0.8h-0.6c-2.9,0-5.3,2.3-5.3,5.2v6c0,0.5,0.4,0.9,1,0.9
				c0.5,0,0.9-0.4,0.9-0.9v-2.8v-3.4c0-1.8,1.5-3.3,3.4-3.3h0h0.6C100.6,19.6,101,19.2,101,18.8"/>
			<path id="Fill-20" class="st0" d="M91.3,18.7L91.3,18.7c0-0.4-0.4-0.8-0.8-0.8h-3.2v-3.1c0-0.5-0.4-0.9-0.9-1
				c-0.5,0-0.9,0.4-0.9,0.9v12.1c0,2.4,1.5,3.4,3.4,3.4c0.7,0,1.3-0.1,1.8-0.3c0.3-0.1,0.5-0.4,0.5-0.7c0-0.4-0.4-0.8-0.8-0.8
				c-0.1,0-0.5,0.2-1.1,0.2c-1.2,0-2-0.5-2-2v-7.1h3.2C90.9,19.5,91.3,19.1,91.3,18.7"/>
			<path id="Fill-10" class="st0" d="M81.7,29.2c0,0.5-0.4,0.9-0.9,0.9s-0.9-0.4-0.9-0.9v-1.3c-1,1.4-2.4,2.3-4.7,2.3
				c-2.9,0-5.8-2.3-5.8-6.2v0c0-3.9,2.9-6.2,5.8-6.2c2.3,0,3.7,0.9,4.7,2.2v-5.2c0-0.5,0.4-0.9,0.9-0.9c0.5,0,0.9,0.4,0.9,0.9
				L81.7,29.2L81.7,29.2z M71.3,24L71.3,24c0,2.9,2,4.7,4.3,4.7c2.3,0,4.4-1.9,4.4-4.6v0c0-2.8-2.1-4.6-4.4-4.6
				C73.3,19.4,71.3,21.1,71.3,24L71.3,24L71.3,24z"/>
			<path id="Fill-8" class="st0" d="M64.6,18.6c0-0.5,0.4-0.9,0.9-0.9s0.9,0.4,0.9,0.9v10.5c0,0.5-0.4,0.9-0.9,0.9s-0.9-0.4-0.9-0.9
				L64.6,18.6L64.6,18.6L64.6,18.6z"/>
			<path id="Fill-22" class="st0" d="M55.8,17.7c-1.7,0-3.3,0.9-4.2,2.2c-0.9-1.3-2.4-2.2-4.1-2.2c-2.8,0-5.1,2.2-5.1,5v6.4
				c0,0.5,0.4,0.9,0.9,0.9c0.5,0,0.9-0.4,0.9-0.9v-6.6c0-1.8,1.5-3.2,3.3-3.2c1.8,0,3.3,1.4,3.3,3.2v5.9l0,0v0
				c0,0.5,0.4,0.9,0.9,0.9c0.5,0,0.9-0.4,0.9-0.9l0-5.9c0-1.8,1.5-3.2,3.3-3.2s3.3,1.4,3.3,3.2v6.6c0,0.5,0.4,0.9,0.9,0.9
				s0.9-0.4,0.9-0.9l0-6.4C60.9,19.9,58.5,17.7,55.8,17.7"/>
		</g>
	</g>
</g>
</svg>
